<mxfile host="www.draw.io" modified="2019-11-15T03:04:44.732Z" agent="Mozilla/5.0 (Windows NT 10.0; Win64; x64) AppleWebKit/537.36 (KHTML, like Gecko) Chrome/78.0.3904.97 Safari/537.36" etag="dpzS8mfPOG0VYs9-OOkp" version="12.2.6" type="github" pages="1">
  <diagram id="sF-UChHGXcfff-Z3Ch60" name="第 1 页">
    <mxGraphModel dx="1422" dy="762" grid="1" gridSize="10" guides="1" tooltips="1" connect="1" arrows="1" fold="1" page="1" pageScale="1" pageWidth="827" pageHeight="1169" math="0" shadow="0">
      <root>
        <mxCell id="0"/>
        <mxCell id="1" parent="0"/>
        <mxCell id="zxHyDIJ5EjyrpYZYw7Tn-1" value="" style="rounded=1;whiteSpace=wrap;html=1;" parent="1" vertex="1">
          <mxGeometry x="320" y="230" width="400" height="270" as="geometry"/>
        </mxCell>
        <mxCell id="EjYxkgxHrnVKzBjctb8L-1" value="" style="rounded=1;whiteSpace=wrap;html=1;" vertex="1" parent="1">
          <mxGeometry x="340" y="280" width="357" height="170" as="geometry"/>
        </mxCell>
        <mxCell id="EjYxkgxHrnVKzBjctb8L-2" value="ReentrantLock" style="text;html=1;strokeColor=none;fillColor=none;align=center;verticalAlign=middle;whiteSpace=wrap;rounded=0;" vertex="1" parent="1">
          <mxGeometry x="497" y="250" width="40" height="20" as="geometry"/>
        </mxCell>
        <mxCell id="EjYxkgxHrnVKzBjctb8L-3" value="AQS" style="text;html=1;strokeColor=none;fillColor=none;align=center;verticalAlign=middle;whiteSpace=wrap;rounded=0;" vertex="1" parent="1">
          <mxGeometry x="500" y="290" width="40" height="20" as="geometry"/>
        </mxCell>
        <mxCell id="EjYxkgxHrnVKzBjctb8L-20" style="edgeStyle=orthogonalEdgeStyle;rounded=0;orthogonalLoop=1;jettySize=auto;html=1;exitX=0.5;exitY=1;exitDx=0;exitDy=0;entryX=0;entryY=0.5;entryDx=0;entryDy=0;" edge="1" parent="1" source="EjYxkgxHrnVKzBjctb8L-5" target="EjYxkgxHrnVKzBjctb8L-11">
          <mxGeometry relative="1" as="geometry"/>
        </mxCell>
        <mxCell id="EjYxkgxHrnVKzBjctb8L-5" value="state = 0 -&amp;gt; 1" style="rounded=0;whiteSpace=wrap;html=1;fillColor=#d80073;strokeColor=#A50040;fontColor=#ffffff;" vertex="1" parent="1">
          <mxGeometry x="350" y="330" width="83" height="30" as="geometry"/>
        </mxCell>
        <mxCell id="EjYxkgxHrnVKzBjctb8L-6" value="双向链表节点" style="rounded=0;whiteSpace=wrap;html=1;" vertex="1" parent="1">
          <mxGeometry x="447" y="330" width="60" height="30" as="geometry"/>
        </mxCell>
        <mxCell id="EjYxkgxHrnVKzBjctb8L-7" value="双向链表节点" style="rounded=0;whiteSpace=wrap;html=1;" vertex="1" parent="1">
          <mxGeometry x="507" y="330" width="60" height="30" as="geometry"/>
        </mxCell>
        <mxCell id="EjYxkgxHrnVKzBjctb8L-8" value="双向链表节点" style="rounded=0;whiteSpace=wrap;html=1;" vertex="1" parent="1">
          <mxGeometry x="567" y="330" width="60" height="30" as="geometry"/>
        </mxCell>
        <mxCell id="EjYxkgxHrnVKzBjctb8L-9" value="双向链表节点" style="rounded=0;whiteSpace=wrap;html=1;" vertex="1" parent="1">
          <mxGeometry x="627" y="330" width="60" height="30" as="geometry"/>
        </mxCell>
        <mxCell id="EjYxkgxHrnVKzBjctb8L-11" value="当前加锁线程 = null -&amp;gt; 线程A" style="rounded=0;whiteSpace=wrap;html=1;" vertex="1" parent="1">
          <mxGeometry x="448.5" y="390" width="117" height="46" as="geometry"/>
        </mxCell>
        <mxCell id="EjYxkgxHrnVKzBjctb8L-16" style="edgeStyle=orthogonalEdgeStyle;rounded=0;orthogonalLoop=1;jettySize=auto;html=1;entryX=0;entryY=0.25;entryDx=0;entryDy=0;" edge="1" parent="1" source="EjYxkgxHrnVKzBjctb8L-12" target="EjYxkgxHrnVKzBjctb8L-5">
          <mxGeometry relative="1" as="geometry"/>
        </mxCell>
        <mxCell id="EjYxkgxHrnVKzBjctb8L-17" value="先加锁" style="text;html=1;resizable=0;points=[];align=center;verticalAlign=middle;labelBackgroundColor=#ffffff;" vertex="1" connectable="0" parent="EjYxkgxHrnVKzBjctb8L-16">
          <mxGeometry x="-0.7119" y="-2" relative="1" as="geometry">
            <mxPoint x="25" y="-2" as="offset"/>
          </mxGeometry>
        </mxCell>
        <mxCell id="EjYxkgxHrnVKzBjctb8L-23" style="edgeStyle=orthogonalEdgeStyle;rounded=0;orthogonalLoop=1;jettySize=auto;html=1;exitX=0.5;exitY=0;exitDx=0;exitDy=0;entryX=0.5;entryY=0;entryDx=0;entryDy=0;" edge="1" parent="1" source="EjYxkgxHrnVKzBjctb8L-12" target="EjYxkgxHrnVKzBjctb8L-5">
          <mxGeometry relative="1" as="geometry"/>
        </mxCell>
        <mxCell id="EjYxkgxHrnVKzBjctb8L-24" value="释放锁：会将state -1" style="text;html=1;resizable=0;points=[];align=center;verticalAlign=middle;labelBackgroundColor=#ffffff;" vertex="1" connectable="0" parent="EjYxkgxHrnVKzBjctb8L-23">
          <mxGeometry x="-0.3846" y="3" relative="1" as="geometry">
            <mxPoint as="offset"/>
          </mxGeometry>
        </mxCell>
        <mxCell id="EjYxkgxHrnVKzBjctb8L-26" style="edgeStyle=orthogonalEdgeStyle;rounded=0;orthogonalLoop=1;jettySize=auto;html=1;" edge="1" parent="1" source="EjYxkgxHrnVKzBjctb8L-12" target="EjYxkgxHrnVKzBjctb8L-9">
          <mxGeometry relative="1" as="geometry">
            <Array as="points">
              <mxPoint x="110" y="190"/>
              <mxPoint x="657" y="190"/>
            </Array>
          </mxGeometry>
        </mxCell>
        <mxCell id="EjYxkgxHrnVKzBjctb8L-27" value="唤醒队列中阻塞等待的一个线程" style="text;html=1;resizable=0;points=[];align=center;verticalAlign=middle;labelBackgroundColor=#ffffff;" vertex="1" connectable="0" parent="EjYxkgxHrnVKzBjctb8L-26">
          <mxGeometry x="-0.0198" y="3" relative="1" as="geometry">
            <mxPoint as="offset"/>
          </mxGeometry>
        </mxCell>
        <mxCell id="EjYxkgxHrnVKzBjctb8L-12" value="线程A" style="rounded=0;whiteSpace=wrap;html=1;" vertex="1" parent="1">
          <mxGeometry x="50" y="262" width="120" height="60" as="geometry"/>
        </mxCell>
        <mxCell id="EjYxkgxHrnVKzBjctb8L-18" style="edgeStyle=orthogonalEdgeStyle;rounded=0;orthogonalLoop=1;jettySize=auto;html=1;entryX=0;entryY=0.75;entryDx=0;entryDy=0;" edge="1" parent="1" source="EjYxkgxHrnVKzBjctb8L-13" target="EjYxkgxHrnVKzBjctb8L-5">
          <mxGeometry relative="1" as="geometry"/>
        </mxCell>
        <mxCell id="EjYxkgxHrnVKzBjctb8L-19" value="加锁" style="text;html=1;resizable=0;points=[];align=center;verticalAlign=middle;labelBackgroundColor=#ffffff;" vertex="1" connectable="0" parent="EjYxkgxHrnVKzBjctb8L-18">
          <mxGeometry x="-0.5515" relative="1" as="geometry">
            <mxPoint as="offset"/>
          </mxGeometry>
        </mxCell>
        <mxCell id="EjYxkgxHrnVKzBjctb8L-21" style="edgeStyle=orthogonalEdgeStyle;rounded=0;orthogonalLoop=1;jettySize=auto;html=1;entryX=1;entryY=0.5;entryDx=0;entryDy=0;" edge="1" parent="1" source="EjYxkgxHrnVKzBjctb8L-13" target="EjYxkgxHrnVKzBjctb8L-9">
          <mxGeometry relative="1" as="geometry">
            <Array as="points">
              <mxPoint x="110" y="560"/>
              <mxPoint x="707" y="560"/>
              <mxPoint x="707" y="345"/>
            </Array>
          </mxGeometry>
        </mxCell>
        <mxCell id="EjYxkgxHrnVKzBjctb8L-22" value="入队列阻塞等待" style="text;html=1;resizable=0;points=[];align=center;verticalAlign=middle;labelBackgroundColor=#ffffff;" vertex="1" connectable="0" parent="EjYxkgxHrnVKzBjctb8L-21">
          <mxGeometry x="-0.1734" y="1" relative="1" as="geometry">
            <mxPoint as="offset"/>
          </mxGeometry>
        </mxCell>
        <mxCell id="EjYxkgxHrnVKzBjctb8L-13" value="线程B" style="rounded=0;whiteSpace=wrap;html=1;" vertex="1" parent="1">
          <mxGeometry x="50" y="398" width="120" height="60" as="geometry"/>
        </mxCell>
      </root>
    </mxGraphModel>
  </diagram>
</mxfile>
